<?xml version="1.0" encoding="UTF-8"?>
<svg xmlns="http://www.w3.org/2000/svg" viewBox="0 0 1080 1440" width="1080" height="1440">
  <defs>
    <linearGradient id="bg02" x1="0" y1="0" x2="0" y2="1">
      <stop offset="0%" stop-color="#0f172a"/>
      <stop offset="100%" stop-color="#0d1424"/>
    </linearGradient>
  </defs>
  <rect width="1080" height="1440" fill="url(#bg02)"/>
  <!-- Grade sutil -->
  <g opacity="0.07" stroke="#6b7a45" stroke-width="1" fill="none">
    <line x1="0" y1="180" x2="1080" y2="180"/>
    <line x1="0" y1="360" x2="1080" y2="360"/>
    <line x1="0" y1="540" x2="1080" y2="540"/>
    <line x1="0" y1="720" x2="1080" y2="720"/>
    <line x1="0" y1="900" x2="1080" y2="900"/>
    <line x1="0" y1="1080" x2="1080" y2="1080"/>
    <line x1="0" y1="1260" x2="1080" y2="1260"/>
    <line x1="180" y1="0" x2="180" y2="1440"/>
    <line x1="360" y1="0" x2="360" y2="1440"/>
    <line x1="540" y1="0" x2="540" y2="1440"/>
    <line x1="720" y1="0" x2="720" y2="1440"/>
    <line x1="900" y1="0" x2="900" y2="1440"/>
  </g>
  <!-- Linhas horizontais de conexão discretas (ajustadas para não cruzar a copy) -->
  <rect x="0" y="480" width="1080" height="1" fill="#6b7a45" opacity="0.14"/>
  <rect x="0" y="1080" width="1080" height="1" fill="#f86018" opacity="0.12"/>
  <circle cx="100" cy="1080" r="60" fill="none" stroke="#6b7a45" stroke-width="1" opacity="0.14"/>
  <circle cx="980" cy="1080" r="60" fill="none" stroke="#6b7a45" stroke-width="1" opacity="0.14"/>
  <!-- Numeração -->
  <text x="96" y="180" font-family="Inter, Arial, sans-serif" font-size="22" fill="#6b7a45" opacity="0.80" letter-spacing="4">2/4</text>
  <rect x="96" y="194" width="80" height="4" fill="#6b7a45" opacity="0.90" rx="2"/>
  <!-- Copy -->
  <text x="96" y="615" font-family="Inter, Arial, sans-serif" font-size="56" font-weight="700" fill="#f1f5f9" letter-spacing="-1">FluxAI OS&#8482;</text>
  <text x="96" y="685" font-family="Inter, Arial, sans-serif" font-size="40" font-weight="400" fill="#94a3b8" letter-spacing="-0.5">&#233; o</text>
  <text x="96" y="760" font-family="Inter, Arial, sans-serif" font-size="46" font-weight="700" fill="#6b7a45" letter-spacing="-1">Sistema Operacional</text>
  <text x="96" y="830" font-family="Inter, Arial, sans-serif" font-size="46" font-weight="700" fill="#6b7a45" letter-spacing="-1">de Crescimento</text>
  <text x="96" y="910" font-family="Inter, Arial, sans-serif" font-size="40" font-weight="400" fill="#94a3b8" letter-spacing="-0.5">da FluxAI Labs.</text>
  <rect x="96" y="942" width="160" height="3" fill="#f86018" opacity="0.60" rx="1.5"/>
</svg>