<?xml version="1.0" encoding="UTF-8"?>
<svg xmlns="http://www.w3.org/2000/svg" xmlns:xlink="http://www.w3.org/1999/xlink" viewBox="0 0 1080 1440" width="1080" height="1440">
  <defs>
    <linearGradient id="bg" x1="0" y1="0" x2="1" y2="1">
      <stop offset="0%" stop-color="#0f172a"/>
      <stop offset="100%" stop-color="#111827"/>
    </linearGradient>
  </defs>
  <rect width="1080" height="1440" fill="url(#bg)"/>
  
  <rect x="96" y="250" width="80" height="4" fill="#f86018" opacity="0.90" rx="2"/>
  <text x="96" y="238" font-family="Inter, Arial, sans-serif" font-size="22" fill="#6b7a45" opacity="0.80" letter-spacing="4">3/6</text>
  
  <text x="96" y="340" font-family="Inter, Arial, sans-serif" font-size="52" font-weight="700" fill="#f1f5f9" letter-spacing="-1">Avaliamos oito dimens&#245;es do neg&#243;cio,</text>
  <text x="96" y="410" font-family="Inter, Arial, sans-serif" font-size="52" font-weight="700" fill="#f1f5f9" letter-spacing="-1">do posicionamento &#224; tecnologia atual.</text>

  <g transform="translate(540, 950)" opacity="0.8">
    <circle cx="0" cy="-250" r="30" fill="#6b7a45" />
    <circle cx="176" cy="-176" r="30" fill="#6b7a45" />
    <circle cx="250" cy="0" r="30" fill="#f86018" />
    <circle cx="176" cy="176" r="30" fill="#6b7a45" />
    <circle cx="0" cy="250" r="30" fill="#6b7a45" />
    <circle cx="-176" cy="176" r="30" fill="#6b7a45" />
    <circle cx="-250" cy="0" r="30" fill="#f86018" />
    <circle cx="-176" cy="-176" r="30" fill="#6b7a45" />

    <circle cx="0" cy="0" r="80" fill="none" stroke="#6b7a45" stroke-width="2" />
    
    <line x1="0" y1="-80" x2="0" y2="-220" stroke="#6b7a45" stroke-width="2" />
    <line x1="56" y1="-56" x2="155" y2="-155" stroke="#6b7a45" stroke-width="2" />
    <line x1="80" y1="0" x2="220" y2="0" stroke="#f86018" stroke-width="2" />
    <line x1="56" y1="56" x2="155" y2="155" stroke="#6b7a45" stroke-width="2" />
    <line x1="0" y1="80" x2="0" y2="220" stroke="#6b7a45" stroke-width="2" />
    <line x1="-56" y1="56" x2="-155" y2="155" stroke="#6b7a45" stroke-width="2" />
    <line x1="-80" y1="0" x2="-220" y2="0" stroke="#f86018" stroke-width="2" />
    <line x1="-56" y1="-56" x2="-155" y2="-155" stroke="#6b7a45" stroke-width="2" />
  </g>

</svg>