<?xml version="1.0" encoding="UTF-8"?>
<svg xmlns="http://www.w3.org/2000/svg" xmlns:xlink="http://www.w3.org/1999/xlink" viewBox="0 0 1080 1440" width="1080" height="1440">
  <defs>
    <linearGradient id="bg" x1="0" y1="0" x2="1" y2="1">
      <stop offset="0%" stop-color="#0f172a"/>
      <stop offset="100%" stop-color="#111827"/>
    </linearGradient>
  </defs>
  <rect width="1080" height="1440" fill="url(#bg)"/>
  
  <rect x="96" y="250" width="80" height="4" fill="#f86018" opacity="0.90" rx="2"/>
  <text x="96" y="238" font-family="Inter, Arial, sans-serif" font-size="22" fill="#6b7a45" opacity="0.80" letter-spacing="4">4/6</text>
  
  <text x="96" y="340" font-family="Inter, Arial, sans-serif" font-size="52" font-weight="700" fill="#f1f5f9" letter-spacing="-1">Entregamos um relat&#243;rio executivo</text>
  <text x="96" y="410" font-family="Inter, Arial, sans-serif" font-size="52" font-weight="700" fill="#f1f5f9" letter-spacing="-1">apontando pontos cr&#237;ticos</text>
  <text x="96" y="480" font-family="Inter, Arial, sans-serif" font-size="52" font-weight="700" fill="#f1f5f9" letter-spacing="-1">da sua empresa.</text>

  <g transform="translate(340, 700)" opacity="0.8">
    <rect x="0" y="0" width="400" height="500" fill="#1e293b" stroke="#6b7a45" stroke-width="2" rx="10" />
    <rect x="40" y="40" width="200" height="20" fill="#6b7a45" rx="5" />
    <rect x="40" y="80" width="320" height="10" fill="#475569" rx="3" />
    <rect x="40" y="100" width="280" height="10" fill="#475569" rx="3" />
    <rect x="40" y="150" width="100" height="100" fill="#6b7a45" rx="5" opacity="0.5" />
    <rect x="160" y="150" width="200" height="10" fill="#475569" rx="3" />
    <rect x="160" y="180" width="150" height="10" fill="#475569" rx="3" />
    <rect x="40" y="280" width="320" height="15" fill="#f86018" rx="5" />
    <rect x="40" y="320" width="180" height="10" fill="#475569" rx="3" />
  </g>

</svg>